# xmcd
# 
# Track frame offsets:
#     150
#     21339
#     39182
#     65650
#     86888
#     118838
#     136856
#     168052
#     187310
#     205323
#     230708
# 
# Disc length: 3259
# 
# Revision: 23
# Processed by: cddbd v1.5.2PL0 Copyright (c) Steve Scherf et al.
# Submitted via: fre:ac v1.0.31
# 
DISCID=9e0cb90b
DTITLE=Alice In Chains - Black Gives Way to Blue
DYEAR=2009
DGENRE=Hard Rock
TTITLE0=All Secrets Known
TTITLE1=Check My Brain
TTITLE2=Last Of My Kind
TTITLE3=Your Decision
TTITLE4=A Looking In View
TTITLE5=When The Sun Rose Again
TTITLE6=Acid Bubble
TTITLE7=Lesson Learned
TTITLE8=Take Her Out
TTITLE9=Private Hell
TTITLE10=Black Gives Way To Blue
EXTD=\n
EXTT0=
EXTT1=
EXTT2=
EXTT3=
EXTT4=
EXTT5=
EXTT6=
EXTT7=
EXTT8=
EXTT9=
EXTT10=
PLAYORDER=
